<?xml version="1.0" standalone="no"?>
<!DOCTYPE svg PUBLIC "-//W3C//DTD SVG 20010904//EN"
 "http://www.w3.org/TR/2001/REC-SVG-20010904/DTD/svg10.dtd">
<svg version="1.0" xmlns="http://www.w3.org/2000/svg"
 width="920.000000pt" height="1000.000000pt" viewBox="0 0 920.000000 1000.000000"
 preserveAspectRatio="xMidYMid meet">

<g transform="translate(0.000000,1000.000000) scale(0.100000,-0.100000)"
fill="#000000" stroke="none">
<path d="M2547 8562 l-2057 -1186 0 -2376 0 -2375 2053 -1184 c1128 -651 2056
-1184 2062 -1184 6 0 934 533 2062 1184 l2053 1184 0 2375 0 2376 -2052 1183
c-1129 652 -2056 1186 -2059 1187 -3 2 -931 -531 -2062 -1184z m3729 -328
c190 -49 325 -166 424 -369 143 -292 181 -712 110 -1214 -17 -119 -55 -323
-75 -403 -5 -20 -3 -29 6 -32 346 -110 486 -164 689 -267 236 -119 404 -233
548 -373 154 -149 246 -303 278 -465 36 -185 -26 -385 -182 -579 -219 -274
-668 -541 -1203 -715 l-123 -40 5 -31 c3 -17 15 -75 27 -129 135 -634 94
-1208 -112 -1555 -42 -71 -158 -190 -222 -227 -286 -166 -682 -104 -1159 182
-188 113 -407 280 -588 450 l-80 74 -87 -80 c-376 -344 -761 -575 -1117 -672
-146 -40 -351 -51 -469 -25 -297 66 -488 322 -563 751 -22 125 -25 549 -5 695
20 147 59 366 81 459 21 85 20 101 -3 101 -7 0 -74 20 -150 45 -356 117 -695
291 -926 475 -316 252 -471 539 -431 797 66 428 571 828 1369 1085 158 51 163
54 159 78 -2 14 -18 93 -35 175 -79 381 -102 758 -62 1030 60 410 233 672 504
762 73 24 96 27 226 27 158 0 250 -17 419 -76 293 -103 660 -339 989 -636 l93
-84 72 69 c414 391 895 669 1262 728 104 17 243 12 331 -11z"/>
<path d="M5970 7935 c-293 -55 -720 -309 -1053 -626 l-88 -84 102 -115 c129
-146 299 -358 421 -525 l95 -130 109 -13 c276 -32 685 -99 850 -138 20 -5 24
2 43 88 58 263 83 474 83 713 1 208 -10 311 -48 455 -50 190 -145 328 -250
364 -69 23 -176 28 -264 11z"/>
<path d="M3007 7929 c-321 -76 -428 -709 -251 -1497 14 -65 28 -120 30 -123 2
-4 79 9 171 28 175 35 500 84 688 104 61 6 113 13 117 15 3 2 65 83 137 178
136 181 292 372 417 512 l73 80 -47 45 c-75 72 -179 159 -293 247 -393 302
-809 466 -1042 411z"/>
<path d="M4503 6888 c-54 -62 -145 -171 -202 -243 -57 -71 -110 -137 -117
-145 -11 -13 37 -15 421 -15 l433 0 -21 30 c-72 101 -387 476 -406 483 -5 2
-53 -48 -108 -110z"/>
<path d="M4165 6170 c-66 -4 -144 -8 -173 -9 l-53 -1 -103 -157 c-181 -277
-346 -563 -491 -852 l-75 -151 76 -152 c140 -281 307 -571 489 -849 l102 -156
49 -7 c105 -14 841 -19 1063 -7 213 11 226 13 240 34 112 156 375 600 524 884
150 286 145 232 39 436 -150 289 -362 650 -524 892 l-54 80 -74 7 c-117 10
-901 17 -1035 8z m642 -544 c195 -63 350 -218 418 -417 24 -72 28 -100 28
-194 1 -168 -40 -290 -141 -418 -81 -103 -228 -195 -362 -228 -71 -17 -219
-17 -290 0 -310 75 -528 368 -506 679 31 426 446 707 853 578z"/>
<path d="M3375 6095 c-188 -29 -487 -85 -497 -94 -12 -11 166 -513 216 -608
l14 -27 37 74 c68 136 282 505 379 653 10 15 17 27 15 26 -2 0 -76 -11 -164
-24z"/>
<path d="M5738 6011 c89 -144 187 -313 288 -494 l83 -151 21 50 c79 183 217
570 207 581 -12 11 -284 64 -487 93 -74 11 -145 22 -156 23 -19 3 -12 -12 44
-102z"/>
<path d="M2390 5871 c-482 -161 -852 -378 -1026 -603 -113 -145 -137 -272 -77
-400 117 -249 456 -502 921 -687 107 -43 352 -125 355 -120 2 2 26 76 55 163
60 180 174 475 251 645 28 63 51 121 51 128 0 8 -24 69 -54 136 -79 180 -178
433 -241 618 -41 124 -59 165 -72 166 -10 2 -83 -19 -163 -46z"/>
<path d="M6616 5832 c-60 -184 -132 -376 -227 -597 l-99 -231 75 -168 c92
-206 190 -450 246 -616 23 -69 45 -129 50 -134 17 -20 359 108 584 219 338
166 566 349 662 532 94 177 58 308 -137 504 -205 206 -510 375 -935 519 -211
71 -186 74 -219 -28z"/>
<path d="M6083 4591 c-102 -189 -249 -447 -324 -568 -48 -79 -85 -143 -83
-143 54 0 654 103 675 116 13 8 -136 418 -219 603 l-20 44 -29 -52z"/>
<path d="M3032 4454 c-80 -205 -168 -461 -161 -468 8 -9 249 -54 404 -76 240
-34 265 -37 265 -33 0 3 -40 68 -88 146 -89 143 -243 410 -300 522 -17 33 -35
66 -40 74 -7 9 -30 -39 -80 -165z"/>
<path d="M6301 3668 c-259 -52 -707 -118 -809 -118 -37 0 -39 -3 -142 -146
-117 -164 -325 -427 -436 -552 -41 -45 -74 -86 -73 -90 0 -4 44 -46 97 -94
386 -348 776 -568 1076 -608 152 -21 259 11 341 102 180 200 240 666 155 1208
-23 142 -59 312 -69 320 -3 3 -66 -7 -140 -22z"/>
<path d="M2776 3663 c-15 -52 -67 -324 -81 -428 -23 -165 -31 -455 -16 -585
27 -237 96 -417 196 -508 70 -64 125 -82 249 -82 156 0 300 41 511 145 233
114 500 305 712 508 l52 50 -103 116 c-144 163 -276 325 -410 505 l-116 155
-52 5 c-391 42 -578 68 -792 111 -150 30 -143 29 -150 8z"/>
<path d="M4180 3511 c0 -18 423 -521 438 -521 11 1 220 250 330 395 l99 130
-433 0 c-239 0 -434 -2 -434 -4z"/>
</g>
</svg>
